<?xml version="1.0" standalone="no"?><!DOCTYPE svg PUBLIC "-//W3C//DTD SVG 1.1//EN" "http://www.w3.org/Graphics/SVG/1.1/DTD/svg11.dtd"><svg t="1584772071861" class="icon" viewBox="0 0 1024 1024" version="1.1" xmlns="http://www.w3.org/2000/svg" p-id="15651" xmlns:xlink="http://www.w3.org/1999/xlink" width="200" height="200"><defs><style type="text/css"></style></defs><path d="M512 1024A512 512 0 1 1 512 0a512 512 0 0 1 0 1024z m8.777143-858.404571c-63.195429 0-114.980571 21.065143-153.6 63.195428-38.619429 41.252571-58.806857 97.426286-58.806857 167.643429H380.342857c0.877714-55.296 14.043429-97.426286 38.619429-125.513143 22.820571-29.842286 56.173714-43.885714 99.181714-43.885714 40.374857 0 72.850286 10.532571 95.670857 31.597714 22.820571 21.065143 34.230857 50.029714 34.230857 88.649143 0 40.374857-16.676571 78.116571-48.274285 112.347428-16.676571 17.554286-49.152 43.008-98.304 78.116572-66.706286 45.641143-111.469714 83.382857-136.045715 111.469714-42.130286 46.518857-62.317714 98.304-62.317714 155.355429h417.792v-64.073143h-329.142857c11.410286-42.130286 57.051429-90.404571 136.923428-143.945143 64.950857-43.885714 107.958857-78.116571 129.901715-100.937143 40.374857-43.885714 61.44-93.037714 61.44-147.456s-19.309714-99.181714-56.173715-132.534857c-37.741714-33.353143-85.138286-50.029714-143.067428-50.029714z" fill="#666666" p-id="15652"></path></svg>