<?xml version="1.0" standalone="no"?><!DOCTYPE svg PUBLIC "-//W3C//DTD SVG 1.1//EN" "http://www.w3.org/Graphics/SVG/1.1/DTD/svg11.dtd"><svg t="1584772453853" class="icon" viewBox="0 0 1024 1024" version="1.1" xmlns="http://www.w3.org/2000/svg" p-id="25108" xmlns:xlink="http://www.w3.org/1999/xlink" width="200" height="200"><defs><style type="text/css"></style></defs><path d="M512 0C229.376 0 0 229.376 0 512S229.376 1024 512 1024 1024 794.624 1024 512 794.624 0 512 0z m110.592 753.664c-36.864 32.768-86.016 45.056-143.36 45.056-53.248 0-94.208-8.192-126.976-28.672V696.32c36.864 28.672 81.92 45.056 131.072 45.056 36.864 0 69.632-8.192 90.112-28.672s32.768-45.056 32.768-73.728C602.112 565.248 552.96 532.48 450.56 532.48h-45.056V475.136H450.56c90.112 0 135.168-32.768 135.168-98.304 0-61.44-32.768-90.112-102.4-90.112-40.96 0-77.824 12.288-110.592 40.96V253.952c36.864-20.48 77.824-32.768 126.976-32.768 49.152 0 86.016 12.288 114.688 36.864s40.96 61.44 40.96 98.304c0 73.728-36.864 118.784-110.592 139.264 40.96 4.096 73.728 20.48 94.208 40.96s36.864 53.248 36.864 90.112c0 57.344-20.48 98.304-53.248 126.976z" p-id="25109" fill="#515151"></path></svg>