<?xml version="1.0" standalone="no"?><!DOCTYPE svg PUBLIC "-//W3C//DTD SVG 1.1//EN" "http://www.w3.org/Graphics/SVG/1.1/DTD/svg11.dtd"><svg t="1583231638561" class="icon" viewBox="0 0 1024 1024" version="1.1" xmlns="http://www.w3.org/2000/svg" p-id="4734" xmlns:xlink="http://www.w3.org/1999/xlink" width="200" height="200"><defs><style type="text/css"></style></defs><path d="M512 90.125C279.125 90.125 90.125 279.125 90.125 512s189 421.875 421.875 421.875 421.875-189 421.875-421.875S744.875 90.125 512 90.125z m196.171875 470.390625h-147.65625v147.65625c0 27-21.515625 48.515625-48.515625 48.515625s-48.515625-21.515625-48.515625-48.515625v-147.65625h-147.65625c-27 0-48.515625-21.515625-48.515625-48.515625s21.515625-48.515625 48.515625-48.515625h147.65625v-147.65625c0-27 21.515625-48.515625 48.515625-48.515625s48.515625 21.515625 48.515625 48.515625v147.65625h147.65625c27 0 48.515625 21.515625 48.515625 48.515625s-21.515625 48.515625-48.515625 48.515625z" fill="#1abc9c" p-id="4735"></path></svg>