<?xml version="1.0" standalone="no"?><!DOCTYPE svg PUBLIC "-//W3C//DTD SVG 1.1//EN" "http://www.w3.org/Graphics/SVG/1.1/DTD/svg11.dtd"><svg t="1583239368115" class="icon" viewBox="0 0 1024 1024" version="1.1" xmlns="http://www.w3.org/2000/svg" p-id="5230" xmlns:xlink="http://www.w3.org/1999/xlink" width="200" height="200"><defs><style type="text/css"></style></defs><path d="M511.460383 1023.176033c-281.626572 0-510.721468-229.378851-510.721469-511.289378S229.833811 0.654067 511.460383 0.654067c281.569781 0 510.664677 229.32206 510.664677 511.232588s-229.094896 511.289378-510.664677 511.289378z m308.091178-428.431308c9.427306 37.48206-94.21627 25.55595-119.545056 60.652788-25.328786 35.096838-87.174186 11.528573-101.5991 4.770444-14.311332-6.758129-69.22823 15.731107-64.457786-22.489236 4.770444-38.220343 38.220343-40.378401 74.055465-56.109508 35.835121-15.787898 87.514932-68.035619 62.129354-74.850539-119.601847-32.086915-160.377786-144.589888-160.377785-144.589888-7.155666-1.362984-5.395145-79.507401-36.459823-81.779041-31.064677-2.27164-47.818022 8.972978-93.194032 0-45.4328-8.972978-35.835121-38.163552-42.990787-101.087981s19.138567-42.706832 33.336317-62.924428c1.192611-1.817312 2.83955-3.350669 4.429698-4.940817-166.340841 56.961374-286.283434 214.953937-286.283434 400.490136v0.908656c30.894304 2.044476 87.174186 8.51865 89.900154 29.758484 3.577833 29.304156 0 65.934352 25.49916 76.951806 25.726323 11.017454 32.995571-43.956234 54.973688-29.304156 21.921326 14.652078 80.529639 28.736246 80.529639 54.689733 0 25.896696-10.960663 66.275098 0 73.544346 10.960663 7.326039 54.916898 58.665104 54.916898 65.991143 0 7.269248 15.447152 44.580935 10.79029 58.835476-3.748206 11.812528-23.057146 48.499515-41.741386 65.196069a422.013925 422.013925 0 0 0 147.997348 26.805352c233.127057 0 422.808999-189.909106 422.808999-423.376909a420.650941 420.650941 0 0 0-46.227874-192.067164c2.83955 43.047578 0.965447 82.29016 10.335962 95.124926 41.230266 56.223091-100.406489 94.840971-78.825909 179.800308z" fill="#C0C0C0" p-id="5231"></path></svg>