<?xml version="1.0" standalone="no"?><!DOCTYPE svg PUBLIC "-//W3C//DTD SVG 1.1//EN" "http://www.w3.org/Graphics/SVG/1.1/DTD/svg11.dtd"><svg t="1583225240534" class="icon" viewBox="0 0 1133 1024" version="1.1" xmlns="http://www.w3.org/2000/svg" p-id="4001" xmlns:xlink="http://www.w3.org/1999/xlink" width="221.2890625" height="200"><defs><style type="text/css"></style></defs><path d="M297.23 288.797a35.134 35.134 0 0 0 70.268 0 35.134 35.134 0 0 0-70.268 0c0 19.402 0 0 0 0z m161.202 8.267a35.134 35.134 0 0 0 70.268 0 35.134 35.134 0 0 0-70.268 0c0 19.402 0 0 0 0z m204.893 352.611c-1.67-1.5-4.08-1.128-5.56 0.562-1.484 1.687-1.116 4.125 0.554 5.626 0 0 2.782 2.438 7.415 6.572 0.74 0.744 1.666 0.938 2.596 0.938 1.112 0 2.22-0.372 2.968-1.314a3.952 3.952 0 0 0-0.372-5.63c-4.638-4.125-7.415-6.572-7.601-6.754z m21.874 20.262c-1.666-1.5-4.076-1.5-5.56 0.19-1.48 1.686-1.484 4.13 0.186 5.626 4.82 4.691 9.453 9.192 13.719 13.698 0.74 0.748 1.852 1.314 2.782 1.314 0.926 0 2.037-0.372 2.781-1.124 1.484-1.5 1.666-4.13 0.186-5.63a1006.72 1006.72 0 0 0-14.094-14.074z m137 74.302c-6.489 1.69-12.606 3.005-18.537 3.939-2.22 0.376-3.708 2.439-3.336 4.505 0.372 2.067 2.038 3.377 3.89 3.377h0.558c6.117-0.938 12.792-2.438 19.464-4.129a4.067 4.067 0 0 0 2.781-4.877c-0.553-2.067-2.781-3.377-4.82-2.815z m70.822-29.645a249.128 249.128 0 0 1-17.244 8.817 3.91 3.91 0 0 0-1.852 5.257c0.74 1.5 2.038 2.249 3.522 2.249 0.554 0 1.112-0.19 1.666-0.376a385.951 385.951 0 0 0 17.43-9.011c1.852-1.12 2.592-3.373 1.666-5.435a3.687 3.687 0 0 0-5.192-1.505v0.004z m-34.67 16.89a271.051 271.051 0 0 1-17.985 6.943 3.989 3.989 0 0 0-2.41 5.064c0.554 1.686 2.042 2.624 3.708 2.624 0.372 0 0.93 0 1.298-0.186a331.705 331.705 0 0 0 18.352-7.13c2.042-0.942 2.972-3.19 2.042-5.253-0.74-1.877-2.968-3.005-5.001-2.067h-0.004z m68.035-36.404c-5.56 3.563-11.119 6.944-16.496 10.127-1.856 1.129-2.596 3.567-1.484 5.444 0.744 1.314 2.042 2.067 3.34 2.067 0.74 0 1.298-0.19 2.037-0.563 5.374-3.19 11.123-6.572 16.687-10.135a3.985 3.985 0 0 0 1.298-5.44c-1.112-1.876-3.522-2.814-5.374-1.5h-0.004z m-141.635 54.788h-0.926c-6.303 0-12.234-0.562-17.612-1.69-2.224-0.372-4.261 0.942-4.638 3.19-0.372 2.25 0.93 4.316 3.154 4.692 5.932 1.315 12.421 1.877 19.278 1.877h0.93a3.94 3.94 0 0 0 3.894-3.94 4.022 4.022 0 0 0-4.08-4.129z m258.06-108.08l1.298-2.624h1.298c5.932 0 10.755-4.878 10.755-10.883s-4.82-10.88-10.755-10.88c-5.931 0-10.747 4.878-10.747 10.884 0 2.624 0.926 5.25 2.592 7.13l-1.856 3.753a36.34 36.34 0 0 0-6.49-0.562c-7.415 0-14.09 2.439-19.65 6.572l-5.93-5.444c0.74-1.5 1.111-3.005 1.111-4.691 0-6.002-4.82-10.883-10.755-10.883-5.931 0-10.751 4.877-10.751 10.883s4.82 10.883 10.751 10.883c1.488 0 2.782-0.372 3.894-0.748l5.745 5.44a26.937 26.937 0 0 0-3.336 4.69 30.984 30.984 0 0 0-4.451-1.314c-0.186 0-0.372 0-0.372-0.19a42.466 42.466 0 0 0-8.527-0.938c-16.683 0-30.588 15.575-32.44 25.143-1.115-0.376-2.223-0.19-3.34 0.563-2.78 1.876-5.559 3.753-8.154 5.625-1.852 1.129-2.41 3.753-1.112 5.63a4.133 4.133 0 0 0 3.335 1.876c0.744 0 1.488-0.19 2.224-0.748a199.85 199.85 0 0 0 7.97-5.443c3.34 9.01 14.276 19.7 27.441 21.576h0.372c1.108 0.19 2.406 0.19 3.518 0.19a37.606 37.606 0 0 0 17.984-4.505c0.372-0.186 0.558-0.372 0.93-0.563 1.298-0.744 2.596-1.686 3.708-2.624 5.559 3.939 12.234 6.378 19.468 6.378 18.352 0 33.365-15.195 33.365-33.77 0.186-13.322-7.784-24.958-19.097-30.397h0.004z m-49.31-3.753a2.947 2.947 0 0 1-2.969-3c0-1.691 1.298-3.005 2.968-3.005 1.666 0 2.968 1.314 2.968 3.005a2.947 2.947 0 0 1-2.968 3z m51.72-12.57c1.666 0 2.968 1.315 2.968 3.006a2.947 2.947 0 0 1-2.968 3 2.947 2.947 0 0 1-2.968-3c0-1.69 1.298-3.005 2.968-3.005z m-83.238 54.789c0-2.067 3.336-7.696 8.527-12.198-0.372 1.125-0.554 2.439-0.74 3.753-1.112 6.944-0.554 15.385 2.41 22.705-6.303-4.505-10.197-10.883-10.197-14.26z m24.656 19.323h-1.484c-7.602-6.567-8.9-17.823-7.602-26.453 1.116-7.13 3.708-10.321 4.452-10.693 0.554-0.19 0.926-0.562 1.298-0.943 1.116-0.186 2.224-0.372 3.34-0.372h0.182c-2.41 4.692-3.89 10.88-3.708 16.885 0.372 8.63 4.08 15.947 10.383 20.638a27.533 27.533 0 0 1-6.861 0.938z m15.946-4.687c-9.27-3.939-11.495-11.45-11.68-17.26-0.373-7.317 2.41-13.323 4.451-15.385 0.554 0.186 0.926 0.372 1.48 0.372a33.51 33.51 0 0 0-1.48 9.759c0 8.254 2.968 15.946 7.97 21.952a2.57 2.57 0 0 1-0.745 0.562z m26.136 3.377c-14.091 0-25.396-11.635-25.396-25.705 0-14.07 11.491-25.706 25.396-25.706 13.904 0 25.4 11.636 25.4 25.706s-11.31 25.705-25.4 25.705z" p-id="4002"></path><path d="M1008.174 669.069a6.2 6.2 0 1 0 12.4 0 6.2 6.2 0 1 0-12.4 0c0 3.427 0 0 0 0z m28.933 0a6.2 6.2 0 1 0 12.4 0 6.2 6.2 0 1 0-12.4 0c0 3.427 0 0 0 0zM805.348 254.262c4.663-1.496 23.676 3.555 38.031 17.394 7.647 7.477 15.848 19.633 11.562 35.34a8.192 8.192 0 0 0 5.406 9.912c0.744 0.19 1.488 0.372 2.232 0.372 3.542 0 6.713-2.24 7.647-5.795 5.03-18.141-0.562-36.465-15.848-51.242-15.847-15.335-41.201-25.246-54.064-21.13-4.105 1.31-6.531 5.795-5.22 10.098 1.673 4.117 6.15 6.362 10.25 5.051z m5.779-42.264c5.034-0.938 36.725 0.934 60.029 20.196 17.34 14.4 26.102 34.973 26.102 60.968 0 4.484 3.543 8.04 7.829 8.04s8.019-3.556 8.019-7.854c0.186-31.232-10.627-55.917-31.881-73.496-26.66-21.882-62.642-25.619-73.269-23.56-4.286 0.934-7.084 5.042-6.15 9.345a8.135 8.135 0 0 0 9.32 6.357zM249.225 688.682c-54.627-14.025-47.542-80.23-47.17-83.032 0.562-4.298-2.604-8.415-6.899-8.977-4.286-0.558-8.39 2.62-8.949 6.919-0.186 0.748-2.422 20.758 3.356 42.826 8.02 30.298 27.223 50.303 55.553 57.599 0.748 0.186 1.31 0.186 2.055 0.186 3.542 0 6.712-2.43 7.646-5.985 1.307-4.113-1.306-8.598-5.592-9.536z" p-id="4003"></path><path d="M692.374 788.21l0.938-9.342 71.91-31.384a11.49 11.49 0 0 0 2.996-2.24l159.549-189.616a7.853 7.853 0 0 0 0.372-9.714c-2.063-2.992-5.994-4.112-9.362-2.806l-51.684 20.551v-109.1c0-2.427-1.125-4.671-2.997-6.164a8.002 8.002 0 0 0-6.746-1.496l-69.846 16.253-12.359-18.493c36.705-10.09 63.857-43.715 63.857-83.697 0-47.824-38.949-86.678-86.888-86.678s-86.884 38.854-86.884 86.678c0 5.79 0.558 11.581 1.682 17.186l-69.474 5.415v-71.73c0-134.7-109.741-244.173-244.75-244.173-135.017 0-244.75 109.473-244.75 244.168V826.13c-19.291 11.21-29.778 23.54-29.778 36.427 0 51.75 170.784 93.783 381.636 93.783 210.857 0 381.637-42.037 381.637-93.783-0.744-30.265-58.802-57.165-149.059-74.351v0.004z m22.66-36.246l13.855-15.876 0.562 1.116c1.682 2.244 3.554 4.298 5.427 6.167l-19.849 8.597zM863.53 582.152l31.273-12.52-138.014 164.025-13.665 5.977a39.404 39.404 0 0 1-7.308-7.469 4.352 4.352 0 0 0-2.244-1.496L863.53 582.152z m-12.731-117.508v104.988l-223.026 66.696-5.807-118.256 228.833-53.432v0.004z m-99.065-174.297c39.139 0 70.974 31.757 70.974 70.805 0 39.04-31.835 70.8-70.97 70.8-39.143 0-70.975-31.76-70.975-70.804s31.836-70.805 70.97-70.805z m-80.519 103.496c12.917 31.57 44.19 53.99 80.519 53.99 1.872 0 3.93 0 5.807-0.19l12.921 19.427-158.615 36.994a8.06 8.06 0 0 0-6.179 8.217l5.055 103.872L483.386 408.6l187.821-14.76h0.004zM403.43 605.878c0-23.54-9.362-44.835-24.717-60.34l90.633-129.652 127.713 208.117-84.64-48.948c-3.372-1.868-7.49-1.12-10.114 1.678L379.278 720.77l-20.973-39.044c26.78-14.57 45.133-43.152 45.133-75.847z m-87.074 70.805c-39.139 0-70.97-31.761-70.97-70.805 0-39.044 31.831-70.805 70.97-70.805 39.135 0 70.97 31.76 70.97 70.805 0 39.044-31.835 70.805-70.97 70.805z m119.286 221.186c-24.346 3.178-52.246 5.042-83.52 5.042-149.996 0-215.911-46.889-228.832-57.164v-533.91c0-125.916 102.62-228.288 228.833-228.288s228.832 102.372 228.832 228.287v73.037l-111.795 8.598c-0.19 0-0.563 0.186-0.749 0.186h-0.562l-1.682 0.562a4.067 4.067 0 0 0-1.5 0.934l-1.497 1.496-96.816 138.246a86.049 86.049 0 0 0-49.994-15.88c-47.943 0-86.888 38.853-86.888 86.677 0 47.823 38.95 86.685 86.884 86.685 9.548 0 18.543-1.496 27.157-4.299l24.531 45.583-41.945 48.948a7.357 7.357 0 0 0-1.687 6.725c0.562 2.43 2.063 4.485 4.307 5.605l111.796 54.734-4.869 48.2h-0.004z m-90.637-112.462l38.577-45.21 0.372-0.373 126.213-147.587 97.75 56.421-161.045 186.627L345 785.407h0.004z m326.583 53.99l-221.153 72.294 6.18-60.34 220.033-66.692-5.06 54.739z m-198.493-9.713l151.865-175.983 209.732-62.58-109.737 125.35-0.186-0.186c-3.745-4.857-7.866-10.086-12.55-15.319-1.496-1.682-3.926-1.868-5.617-0.372-1.682 1.492-1.872 3.919-0.372 5.601a331.829 331.829 0 0 1 12.173 14.946 2.86 2.86 0 0 0 1.496 1.12l-38.763 44.277L473.09 829.68z" p-id="4004"></path></svg>