<?xml version="1.0" standalone="no"?><!DOCTYPE svg PUBLIC "-//W3C//DTD SVG 1.1//EN" "http://www.w3.org/Graphics/SVG/1.1/DTD/svg11.dtd"><svg t="1584256619554" class="icon" viewBox="0 0 1024 1024" version="1.1" xmlns="http://www.w3.org/2000/svg" p-id="1838" xmlns:xlink="http://www.w3.org/1999/xlink" width="200" height="200"><defs><style type="text/css"></style></defs><path d="M512 512m-512 0a512 512 0 1 0 1024 0 512 512 0 1 0-1024 0Z" fill="#3BBDF9" p-id="1839"></path><path d="M661.76 522.24H446.72c-5.12 0-8.96-3.84-8.96-8.96 0-5.12 3.84-8.96 8.96-8.96h195.84l-48.64-55.04c-3.84-3.84-3.84-8.96 0-11.52s8.96-3.84 11.52 0l60.16 69.12c1.28 1.28 3.84 6.4 1.28 8.96s-2.56 6.4-5.12 6.4z m6.4-8.96c1.28 1.28 0 6.4-1.28 8.96l-60.16 69.12c-3.84 3.84-8.96 3.84-11.52 0s-3.84-8.96 0-11.52l48.64-55.04H446.72c-5.12 0-8.96-3.84-8.96-8.96 0-5.12 3.84-8.96 8.96-8.96h215.04c2.56 0 5.12 5.12 6.4 6.4z" fill="#FFFFFF" p-id="1840"></path><path d="M655.36 698.88H368.64c-16.64 0-29.44-14.08-29.44-32V320c0-17.92 14.08-32 29.44-32h286.72c16.64 0 29.44 14.08 29.44 32v85.76h-12.8V320c0-10.24-7.68-19.2-16.64-19.2H368.64c-8.96 0-16.64 8.96-16.64 19.2v346.88c0 10.24 7.68 19.2 16.64 19.2h286.72c8.96 0 16.64-8.96 16.64-19.2v-30.72h12.8v30.72c1.28 17.92-12.8 32-29.44 32z" fill="#FFFFFF" p-id="1841"></path></svg>