<?xml version="1.0" standalone="no"?><!DOCTYPE svg PUBLIC "-//W3C//DTD SVG 1.1//EN" "http://www.w3.org/Graphics/SVG/1.1/DTD/svg11.dtd"><svg t="1583132188780" class="icon" viewBox="0 0 1396 1024" version="1.1" xmlns="http://www.w3.org/2000/svg" p-id="4349" xmlns:xlink="http://www.w3.org/1999/xlink" width="272.65625" height="200"><defs><style type="text/css"></style></defs><path d="M837.841455 243.316364l-99.374546 185.134545-138.193454-48.104727 24.738909 45.335273-130.164364 79.569454-41.704727-76.497454-220.299637 135.540363a130.094545 130.094545 0 0 1 21.527273 71.959273 130.141091 130.141091 0 0 1-21.178182 71.400727l158.626909 161.210182h244.061091V1024H127.185455v-155.136h192.837818l-122.740364-124.741818c-20.107636 13.498182-44.194909 21.410909-70.097454 21.410909C56.948364 765.509818 0.023273 707.607273 0.023273 636.229818c0-71.377455 56.925091-129.233455 127.162182-129.233454 23.156364 0 44.846545 6.283636 63.534545 17.268363l235.52-144.919272-56.436364-103.470546 130.141091-79.592727 13.312 24.436363L557.312 93.090909l238.08 24.669091-5.306182 52.829091-195.258182-20.247273-47.406545 133.050182 17.082182 31.348364 149.317818 51.968 78.685091-146.664728 45.335273 23.272728zM585.006545 972.357818v-51.851636h-213.85309l-0.139637 0.162909-0.162909-0.162909H178.059636v51.851636h406.946909zM50.897455 636.253091c0 42.728727 34.257455 77.498182 76.288 77.498182 42.053818 0 76.288-34.769455 76.288-77.498182 0-42.752-34.210909-77.498182-76.288-77.498182-42.030545 0-76.264727 34.746182-76.264728 77.498182z m462.266181-203.357091l43.473455-26.600727-75.008-137.611637-43.52 26.600728L513.186909 432.872727z m797.882182 482.513455A108.706909 108.706909 0 0 1 1202.455273 1024h-87.272728v-55.272727c0-22.458182-18.292364-40.727273-40.727272-40.727273-22.458182 0-40.727273 18.269091-40.727273 40.727273V1024h-87.272727A108.730182 108.730182 0 0 1 837.841455 915.409455v-87.272728h55.272727c22.458182 0 40.727273-18.292364 40.727273-40.727272 0-22.458182-18.269091-40.727273-40.727273-40.727273H837.841455v-87.272727a108.730182 108.730182 0 0 1 108.613818-108.637091h40.727272A87.342545 87.342545 0 0 1 1074.455273 465.454545a87.389091 87.389091 0 0 1 87.272727 85.317819h40.727273a108.730182 108.730182 0 0 1 108.590545 108.637091v40.727272A87.412364 87.412364 0 0 1 1396.386909 787.409455a87.342545 87.342545 0 0 1-85.341091 87.226181v40.773819z m-149.341091 53.317818V977.454545h40.750546a62.114909 62.114909 0 0 0 62.045091-62.04509v-87.272728h44.613818c22.458182 0 40.727273-18.269091 40.727273-40.727272s-18.269091-40.727273-40.727273-40.727273h-44.613818v-87.272727a62.138182 62.138182 0 0 0-62.045091-62.091637h-87.272728V552.727273c0-22.458182-18.292364-40.727273-40.727272-40.727273-22.458182 0-40.727273 18.269091-40.727273 40.727273v44.590545h-87.272727A62.138182 62.138182 0 0 0 884.386909 659.409455v40.727272h8.727273a87.365818 87.365818 0 0 1 87.272727 87.272728 87.389091 87.389091 0 0 1-87.272727 87.272727H884.386909v40.727273A62.114909 62.114909 0 0 0 946.455273 977.454545h40.727272v-8.727272a87.389091 87.389091 0 0 1 87.272728-87.272728 87.389091 87.389091 0 0 1 87.272727 87.272728z m-24.552727-706.257455c0 34.909091-28.392727 63.348364-63.348364 63.348364h-50.920727v-32.232727a23.784727 23.784727 0 0 0-47.499636 0V325.818182h-50.920728A63.418182 63.418182 0 0 1 861.114182 262.469818V211.549091h32.232727a23.784727 23.784727 0 0 0 0-47.499636H861.114182V113.105455a63.418182 63.418182 0 0 1 63.348363-63.348364h23.761455A50.967273 50.967273 0 0 1 999.121455 0a50.967273 50.967273 0 0 1 50.920727 49.780364h23.761454c34.932364 0 63.348364 28.416 63.348364 63.371636v23.738182A50.967273 50.967273 0 0 1 1186.932364 187.810909a50.967273 50.967273 0 0 1-49.803637 50.874182v23.784727z m-87.109818 31.115637v5.073454h23.761454c19.944727 0 36.189091-16.221091 36.189091-36.189091V211.572364h26.018909a23.784727 23.784727 0 0 0 0-47.522909h-26.018909V113.152c0-19.968-16.244364-36.235636-36.189091-36.235636h-50.920727V50.920727a23.784727 23.784727 0 0 0-47.499636 0v25.995637h-50.920728c-19.944727 0-36.189091 16.267636-36.18909 36.235636v23.738182h5.073454a50.967273 50.967273 0 0 1 50.920727 50.920727 50.967273 50.967273 0 0 1-50.920727 50.897455h-5.073454v23.761454c0 19.968 16.244364 36.189091 36.18909 36.189091h23.761455v-5.073454a50.967273 50.967273 0 0 1 50.920727-50.920728 50.967273 50.967273 0 0 1 50.897455 50.920728zM1105.477818 0C1150.394182 0 1186.932364 36.538182 1186.932364 81.454545a13.568 13.568 0 1 1-27.159273 0A54.365091 54.365091 0 0 0 1105.477818 27.159273 13.568 13.568 0 1 1 1105.477818 0z" p-id="4350"></path></svg>