<?xml version="1.0" standalone="no"?><!DOCTYPE svg PUBLIC "-//W3C//DTD SVG 1.1//EN" "http://www.w3.org/Graphics/SVG/1.1/DTD/svg11.dtd"><svg t="1584199123454" class="icon" viewBox="0 0 1024 1024" version="1.1" xmlns="http://www.w3.org/2000/svg" p-id="12292" xmlns:xlink="http://www.w3.org/1999/xlink" width="200" height="200"><defs><style type="text/css"></style></defs><path d="M149.961 240.472c-24.993-24.993-24.993-65.517 0-90.51s65.517-24.993 90.51 0L512 421.491l271.529-271.529c24.992-24.993 65.516-24.993 90.508 0 24.994 24.993 24.994 65.517 0 90.51L602.51 512l271.529 271.528c24.992 24.993 24.992 65.516 0 90.51-24.994 24.993-65.518 24.993-90.51-0.001L512 602.508 240.471 874.037c-24.993 24.994-65.517 24.994-90.51 0-24.993-24.993-24.993-65.516 0-90.509L421.49 512 149.961 240.472z" p-id="12293" fill="#d81e06"></path></svg>