<?xml version="1.0" standalone="no"?><!DOCTYPE svg PUBLIC "-//W3C//DTD SVG 1.1//EN" "http://www.w3.org/Graphics/SVG/1.1/DTD/svg11.dtd"><svg t="1583132146401" class="icon" viewBox="0 0 1024 1024" version="1.1" xmlns="http://www.w3.org/2000/svg" p-id="2861" xmlns:xlink="http://www.w3.org/1999/xlink" width="200" height="200"><defs><style type="text/css"></style></defs><path d="M512 0C230.4 0 0 230.4 0 512s230.4 512 512 512 512-230.4 512-512-230.4-512-512-512z m3.2 883.2c-48 0-80-32-80-80s32-80 80-80 80 32 80 80-32 80-80 80z m-6.4-236.8c-69.12 0-86.4-352-86.4-400S456.96 166.4 508.8 166.4s86.4 32 86.4 80c0 40-17.28 400-86.4 400z" fill="#F11919" p-id="2862"></path></svg>