<?xml version="1.0" standalone="no"?><!DOCTYPE svg PUBLIC "-//W3C//DTD SVG 1.1//EN" "http://www.w3.org/Graphics/SVG/1.1/DTD/svg11.dtd"><svg t="1583132215206" class="icon" viewBox="0 0 1024 1024" version="1.1" xmlns="http://www.w3.org/2000/svg" p-id="5100" xmlns:xlink="http://www.w3.org/1999/xlink" width="200" height="200"><defs><style type="text/css"></style></defs><path d="M512 0C228.8 0 0 228.8 0 512s228.8 512 512 512 512-228.8 512-512S795.2 0 512 0z m-1.6 768c-28.8 0-52.8-24-52.8-54.4s24-54.4 52.8-54.4c28.8 0 52.8 24 52.8 54.4 0 28.8-24 54.4-52.8 54.4z m147.2-342.4c-8 14.4-16 25.6-25.6 36.8-9.6 9.6-28.8 27.2-54.4 51.2L560 531.2c-4.8 4.8-8 9.6-9.6 14.4-1.6 4.8-3.2 8-4.8 12.8-1.6 4.8-3.2 11.2-4.8 22.4-4.8 22.4-16 33.6-38.4 33.6-11.2 0-20.8-3.2-27.2-11.2-8-8-11.2-19.2-11.2-33.6 0-17.6 3.2-33.6 8-48 4.8-12.8 12.8-25.6 22.4-35.2 9.6-9.6 20.8-22.4 36.8-36.8 12.8-12.8 24-20.8 28.8-27.2 6.4-6.4 11.2-12.8 16-20.8 4.8-8 6.4-16 6.4-25.6 0-17.6-6.4-32-19.2-44.8-12.8-12.8-28.8-17.6-48-17.6-24 0-40 6.4-51.2 17.6-11.2 12.8-20.8 30.4-27.2 54.4-6.4 24-20.8 36.8-41.6 36.8-11.2 0-22.4-4.8-30.4-12.8s-12.8-17.6-12.8-28.8c0-20.8 6.4-41.6 19.2-64 12.8-20.8 32-38.4 56-52.8 24-14.4 52.8-20.8 86.4-20.8 30.4 0 57.6 6.4 81.6 17.6 24 11.2 41.6 27.2 54.4 48 12.8 20.8 19.2 41.6 19.2 65.6 0 20.8-3.2 36.8-11.2 51.2z" fill="#159BFF" p-id="5101"></path></svg>