<?xml version="1.0" standalone="no"?><!DOCTYPE svg PUBLIC "-//W3C//DTD SVG 1.1//EN" "http://www.w3.org/Graphics/SVG/1.1/DTD/svg11.dtd"><svg t="1583132321565" class="icon" viewBox="0 0 1024 1024" version="1.1" xmlns="http://www.w3.org/2000/svg" p-id="11055" xmlns:xlink="http://www.w3.org/1999/xlink" width="200" height="200"><defs><style type="text/css"></style></defs><path d="M881.8 56.9h-739.6c-78.4 0-142.2 63.8-142.2 142.2v625.8c0 78.4 63.8 142.2 142.2 142.2h739.6c78.4 0 142.2-63.8 142.2-142.2V199.1c0-78.4-63.8-142.2-142.2-142.2z m-597.4 682.7c-31.3 0-56.9-25.4-56.9-56.9 0-31.3 25.6-56.9 56.9-56.9 31.4 0 56.9 25.6 56.9 56.9 0 31.4-25.4 56.9-56.9 56.9z m0-341.4c-31.3 0-56.9-25.4-56.9-56.9 0-31.3 25.6-56.9 56.9-56.9 31.4 0 56.9 25.6 56.9 56.9 0 31.5-25.4 56.9-56.9 56.9zM768 711.1H483.6c-15.8 0-28.4-12.6-28.4-28.4 0-15.6 12.8-28.4 28.4-28.4H768c15.6 0 28.4 12.8 28.4 28.4 0 15.8-12.6 28.4-28.4 28.4z m0-341.3H483.6c-15.8 0-28.4-12.6-28.4-28.4C455.2 325.8 468 313 483.6 313H768c15.6 0 28.4 12.8 28.4 28.4 0 15.7-12.6 28.4-28.4 28.4z" fill="#1969FF" p-id="11056"></path></svg>