<?xml version="1.0" standalone="no"?><!DOCTYPE svg PUBLIC "-//W3C//DTD SVG 1.1//EN" "http://www.w3.org/Graphics/SVG/1.1/DTD/svg11.dtd"><svg t="1583132404315" class="icon" viewBox="0 0 1024 1024" version="1.1" xmlns="http://www.w3.org/2000/svg" p-id="16728" xmlns:xlink="http://www.w3.org/1999/xlink" width="200" height="200"><defs><style type="text/css"></style></defs><path d="M702.025143 675.84c27.721143-14.848 59.318857-23.259429 93.037714-23.259429h0.146286a3.657143 3.657143 0 0 0 2.486857-6.436571 424.740571 424.740571 0 0 0-118.491429-75.190857c-0.438857-0.219429-0.950857-0.292571-1.389714-0.585143A283.501714 283.501714 0 0 0 795.062857 340.553143 283.062857 283.062857 0 0 0 512.146286 57.124571a283.062857 283.062857 0 0 0-282.770286 283.428572c0 94.500571 46.153143 178.322286 117.248 229.814857-0.438857 0.292571-0.877714 0.365714-1.389714 0.585143a425.837714 425.837714 0 0 0-136.338286 92.16c-39.424 39.424-70.217143 85.357714-91.867429 136.557714a427.008 427.008 0 0 0-33.645714 157.842286 9.142857 9.142857 0 0 0 9.216 9.362286h68.461714a9.216 9.216 0 0 0 9.142858-8.923429 340.992 340.992 0 0 1 100.059428-233.472A339.309714 339.309714 0 0 1 512.219429 623.908571c64.804571 0 126.976 17.993143 180.589714 51.565715 2.852571 1.682286 6.290286 1.901714 9.216 0.365714zM512.219429 537.234286c-52.370286 0-101.595429-20.48-138.752-57.636572a195.657143 195.657143 0 0 1-57.490286-138.971428c0-52.443429 20.48-101.814857 57.490286-138.971429a194.56 194.56 0 0 1 138.752-57.563428c52.443429 0 101.668571 20.48 138.752 57.563428 37.010286 37.156571 57.490286 86.528 57.490285 138.971429 0 52.443429-20.48 101.814857-57.490285 138.971428a194.998857 194.998857 0 0 1-138.752 57.636572zM861.696 731.428571H656.091429c-3.803429 0-6.875429 4.096-6.875429 9.142858V804.571429c0 5.046857 3.072 9.142857 6.875429 9.142857h205.677714c3.803429 0 6.875429-4.096 6.875428-9.142857v-64c0-5.046857-3.072-9.142857-6.875428-9.142858z m70.875429 146.285715H658.285714a9.142857 9.142857 0 0 0-9.142857 9.142857V950.857143c0 5.046857 4.096 9.142857 9.142857 9.142857h274.285715a9.142857 9.142857 0 0 0 9.142857-9.142857v-64A9.142857 9.142857 0 0 0 932.571429 877.714286z" fill="#178FFF" p-id="16729"></path></svg>