<?xml version="1.0" standalone="no"?><!DOCTYPE svg PUBLIC "-//W3C//DTD SVG 1.1//EN" "http://www.w3.org/Graphics/SVG/1.1/DTD/svg11.dtd"><svg t="1583240468043" class="icon" viewBox="0 0 1024 1024" version="1.1" xmlns="http://www.w3.org/2000/svg" p-id="2529" xmlns:xlink="http://www.w3.org/1999/xlink" width="200" height="200"><defs><style type="text/css"></style></defs><path d="M 512 0 C 229.248 0 0 229.248 0 512 s 229.248 512 512 512 s 512 -229.248 512 -512 S 794.752 0 512 0 Z m 226.944 637.056 s -16.256 44.16 -45.952 83.84 c 0 0 53.12 18.048 48.64 65.024 c 0 0 1.792 52.352 -113.536 48.64 c 0 0 -81.152 -6.272 -105.344 -40.576 h -21.376 c -24.32 34.304 -105.344 40.576 -105.344 40.576 c -115.2 3.584 -113.408 -48.64 -113.408 -48.64 c -4.48 -46.848 48.64 -65.024 48.64 -65.024 c -29.696 -39.68 -45.952 -83.84 -45.952 -83.84 c -72.064 116.352 -64.896 -16.256 -64.896 -16.256 c 13.44 -78.464 70.144 -130.048 70.144 -130.048 c -8.064 -71.296 21.632 -83.84 21.632 -83.84 c 6.272 -220.544 195.84 -216.832 199.936 -216.704 c 3.968 -0.128 193.664 -3.968 199.808 216.576 c 0 0 29.696 12.544 21.632 83.84 c 0 0 56.704 51.456 70.144 130.048 c 0 0.128 7.168 132.864 -64.768 16.384 Z" fill="#68bef8" p-id="2530"></path></svg>