<?xml version="1.0" standalone="no"?><!DOCTYPE svg PUBLIC "-//W3C//DTD SVG 1.1//EN" "http://www.w3.org/Graphics/SVG/1.1/DTD/svg11.dtd"><svg t="1584779454938" class="icon" viewBox="0 0 1024 1024" version="1.1" xmlns="http://www.w3.org/2000/svg" p-id="27231" xmlns:xlink="http://www.w3.org/1999/xlink" width="200" height="200"><defs><style type="text/css"></style></defs><path d="M512 42.667c-259.233 0-469.333 210.1-469.333 469.333 0 259.233 210.1 469.333 469.333 469.333 259.233 0 469.333-210.1 469.333-469.333 0-259.233-210.1-469.333-469.333-469.333z m-5.958 744.883c-21.909 0-39.692-17.783-39.692-39.692 0-21.908 17.783-39.691 39.692-39.691 21.908 0 39.691 17.783 39.691 39.691 0 21.909-17.783 39.692-39.691 39.692z m170.316-386.467c-2.291 42.442-15.308 75.9-80.391 140.984-33 33-53.809 57.75-55.917 79.475-1.65 17.05-16.042 29.791-32.817 29.791-1.1 0-2.2-0.091-3.3-0.183-18.15-1.742-31.35-17.967-29.608-36.117 4.492-45.741 38.042-82.683 74.983-119.625 59.125-59.125 60.134-77.916 61.142-97.808 1.192-23.192-7.333-45.65-24.2-63.342-19.158-20.166-46.292-31.716-74.433-31.716h-0.184c-54.175 0.091-98.358 44.275-98.358 98.541 0 18.242-14.758 33-33 33s-33-14.758-33-33c0-43.908 17.05-85.158 48.033-116.233 30.984-31.075 72.234-48.217 116.142-48.309 46.292-0.091 91.025 18.976 122.65 52.25 29.517 30.892 44.458 70.767 42.258 112.292z" fill="#FAAD14" p-id="27232"></path></svg>