<?xml version="1.0" encoding="utf-8"?>
<svg version="1.1" xmlns:xlink="http://www.w3.org/1999/xlink" width="300px" height="80px" xmlns="http://www.w3.org/2000/svg">
  <g transform="matrix(1 0 0 1 -514 -211 )">
    <path d="M 782.172291236 211.5  C 782.172291236 211.5  785.758346357753 211.9781406829  785.758346357753 211.9781406829  C 785.758346357753 211.9781406829  813.442773575966 251  813.442773575966 251  C 813.442773575966 251  785.758346357753 290.0218593171  785.758346357753 290.0218593171  C 785.758346357753 290.0218593171  782.172291236 290.5  782.172291236 290.5  C 782.172291236 290.5  514.5 290.5  514.5 290.5  C 514.5 290.5  514.5 211.5  514.5 211.5  C 514.5 211.5  782.172291236 211.5  782.172291236 211.5  Z " fill-rule="nonzero" fill="#ffffff" stroke="none" />
    <path d="M 782.172291236 211.5  C 782.172291236 211.5  785.758346357753 211.9781406829  785.758346357753 211.9781406829  C 785.758346357753 211.9781406829  813.442773575966 251  813.442773575966 251  C 813.442773575966 251  785.758346357753 290.0218593171  785.758346357753 290.0218593171  C 785.758346357753 290.0218593171  782.172291236 290.5  782.172291236 290.5  C 782.172291236 290.5  514.5 290.5  514.5 290.5  C 514.5 290.5  514.5 211.5  514.5 211.5  C 514.5 211.5  782.172291236 211.5  782.172291236 211.5  Z " stroke-width="1" stroke="#8c8c8c" fill="none" />
  </g>
</svg>