<?xml version="1.0" standalone="no"?><!DOCTYPE svg PUBLIC "-//W3C//DTD SVG 1.1//EN" "http://www.w3.org/Graphics/SVG/1.1/DTD/svg11.dtd"><svg t="1583287240780" class="icon" viewBox="0 0 1024 1024" version="1.1" xmlns="http://www.w3.org/2000/svg" p-id="3919" xmlns:xlink="http://www.w3.org/1999/xlink" width="200" height="200"><defs><style type="text/css"></style></defs><path d="M830.58 197.16l-2.49-2.49A445.62 445.62 0 0 0 546.67 65.32 454.649 454.649 0 0 0 512.03 64c-123.23 0-236.47 49.78-317.36 130.67C113.78 276.78 64 388.78 64 512c0 124.45 49.78 236.45 130.67 317.34C276.8 910.23 388.8 960 512 960h334.76a34.77 34.77 0 0 0 34.84-34.84v-158c24.89-36.08 43.56-74.66 57.25-115.73A466.38 466.38 0 0 0 960 512.05c0-123.27-49.77-234-129.42-314.89zM465.96 682.49l27.38-143.11H367.67l-27.4 143.11H265.6l66-341h73.42l-24.93 133.18h126.94l26.13-133.16h74.67l-66 341-75.87-0.02z m230.22 12.45h-77.15l49.77-252.63h77.16l-49.78 252.63z m62.22-324.8c0 12.44-5 24.89-13.69 34.84a43.35 43.35 0 0 1-34.84 12.45c-11.2 0-21.16-3.74-28.62-11.2-7.46-7.46-11.2-18.67-11.2-29.87a46.75 46.75 0 0 1 47.29-47.29c11.2-1.24 21.15 3.73 29.86 11.2 7.47 7.51 11.2 18.67 11.2 29.87z" fill="#70BDFA" p-id="3920"></path></svg>